<!DOCTYPE svg PUBLIC "-//W3C//DTD SVG 20010904//EN" "http://www.w3.org/TR/2001/REC-SVG-20010904/DTD/svg10.dtd">
<svg version="1.0" xmlns="http://www.w3.org/2000/svg" width="276px" height="240px" viewBox="0 0 2760 2400" preserveAspectRatio="xMidYMid meet">
<g id="layer1" fill="#b7c9c9" stroke="none">
 <path d="M1180 2225 c0 -8 7 -15 15 -15 8 0 15 7 15 15 0 8 -7 15 -15 15 -8 0 -15 -7 -15 -15z"/>
 <path d="M1190 2050 c0 -5 7 -10 15 -10 8 0 15 5 15 10 0 6 -7 10 -15 10 -8 0 -15 -4 -15 -10z"/>
 <path d="M1640 1250 c0 -20 5 -30 15 -30 10 0 15 10 15 30 0 20 -5 30 -15 30 -10 0 -15 -10 -15 -30z"/>
 <path d="M1640 1039 c0 -38 24 -35 28 4 2 19 -1 27 -12 27 -11 0 -16 -10 -16 -31z"/>
 <path d="M710 696 c0 -9 7 -16 16 -16 17 0 14 22 -4 28 -7 2 -12 -3 -12 -12z"/>
 <path d="M2213 673 c-7 -2 -13 -12 -13 -20 0 -10 6 -13 16 -9 9 3 18 6 20 6 2 0 4 7 4 15 0 15 -6 17 -27 8z"/>
 <path d="M1645 633 c4 -16 7 -29 8 -30 1 0 36 -3 77 -5 64 -3 75 -1 78 15 3 15 -5 17 -67 17 -56 0 -71 3 -71 15 0 8 -7 15 -16 15 -13 0 -15 -6 -9 -27z"/>
 <path d="M1160 605 c0 -8 9 -15 20 -15 11 0 20 7 20 15 0 8 -9 15 -20 15 -11 0 -20 -7 -20 -15z"/>
 <path d="M1100 595 c0 -8 5 -15 10 -15 6 0 10 7 10 15 0 8 -4 15 -10 15 -5 0 -10 -7 -10 -15z"/>
 </g>
<g id="layer2" fill="#a02a2d" stroke="none">
 <path d="M1210 2315 c0 -12 20 -15 120 -15 100 0 120 3 120 15 0 13 -20 15 -120 15 -100 0 -120 -2 -120 -15z"/>
 <path d="M2305 719 c-4 -6 -5 -13 -2 -16 7 -7 27 6 27 18 0 12 -17 12 -25 -2z"/>
 <path d="M2210 650 c0 -5 7 -10 15 -10 8 0 15 5 15 10 0 6 -7 10 -15 10 -8 0 -15 -4 -15 -10z"/>
 <path d="M2150 625 c0 -8 5 -15 10 -15 6 0 10 7 10 15 0 8 -4 15 -10 15 -5 0 -10 -7 -10 -15z"/>
 <path d="M2110 615 c0 -8 5 -15 10 -15 6 0 10 7 10 15 0 8 -4 15 -10 15 -5 0 -10 -7 -10 -15z"/>
 <path d="M1640 605 c0 -8 5 -15 10 -15 6 0 10 7 10 15 0 8 -4 15 -10 15 -5 0 -10 -7 -10 -15z"/>
 <path d="M2050 605 c0 -8 7 -15 15 -15 8 0 15 7 15 15 0 8 -7 15 -15 15 -8 0 -15 -7 -15 -15z"/>
 <path d="M800 601 c0 -7 70 -41 85 -41 3 0 5 6 5 13 0 8 -17 19 -39 25 -46 14 -51 15 -51 3z"/>
 <path d="M1190 595 c0 -8 5 -15 10 -15 6 0 10 7 10 15 0 8 -4 15 -10 15 -5 0 -10 -7 -10 -15z"/>
 <path d="M1840 595 c0 -12 14 -15 65 -15 51 0 65 3 65 15 0 12 -14 15 -65 15 -51 0 -65 -3 -65 -15z"/>
 <path d="M1110 585 c0 -8 7 -15 15 -15 8 0 15 7 15 15 0 8 -7 15 -15 15 -8 0 -15 -7 -15 -15z"/>
 <path d="M1070 575 c0 -8 5 -15 10 -15 6 0 10 7 10 15 0 8 -4 15 -10 15 -5 0 -10 -7 -10 -15z"/>
 <path d="M910 565 c0 -8 7 -15 15 -15 8 0 15 7 15 15 0 8 -7 15 -15 15 -8 0 -15 -7 -15 -15z"/>
 <path d="M1020 565 c0 -8 7 -15 15 -15 8 0 15 7 15 15 0 8 -7 15 -15 15 -8 0 -15 -7 -15 -15z"/>
 <path d="M542 539 c2 -7 10 -15 17 -17 8 -3 12 1 9 9 -2 7 -10 15 -17 17 -8 3 -12 -1 -9 -9z"/>
 </g>
<g id="layer3" fill="#959393" stroke="none">
 <path d="M930 2305 c0 -11 11 -15 40 -15 29 0 40 4 40 15 0 11 -11 15 -40 15 -29 0 -40 -4 -40 -15z"/>
 <path d="M1030 2296 c0 -11 22 -15 93 -18 50 -2 94 -3 96 -1 2 1 -2 9 -9 18 -17 21 -180 22 -180 1z"/>
 <path d="M1630 2275 c0 -8 7 -15 15 -15 8 0 15 7 15 15 0 8 -7 15 -15 15 -8 0 -15 -7 -15 -15z"/>
 <path d="M1630 1245 c0 -42 3 -55 15 -55 12 0 15 13 15 55 0 42 -3 55 -15 55 -12 0 -15 -13 -15 -55z"/>
 <path d="M1183 1115 c-3 -9 -3 -19 1 -22 7 -7 36 16 36 28 0 15 -30 10 -37 -6z"/>
 <path d="M1650 1118 c0 -19 41 -28 121 -28 46 0 59 3 59 15 0 11 -11 15 -37 15 -21 0 -62 3 -90 6 -43 6 -53 4 -53 -8z"/>
 <path d="M913 1103 c-29 -3 -43 -9 -43 -19 0 -16 36 -18 168 -7 59 4 82 10 82 19 0 14 -95 17 -207 7z"/>
 <path d="M1850 1096 c0 -13 41 -26 86 -26 31 0 32 26 2 34 -42 11 -88 7 -88 -8z"/>
 <path d="M1630 1045 c0 -16 6 -25 15 -25 9 0 15 9 15 25 0 16 -6 25 -15 25 -9 0 -15 -9 -15 -25z"/>
 <path d="M1630 640 c0 -20 5 -30 15 -30 10 0 15 10 15 30 0 20 -5 30 -15 30 -10 0 -15 -10 -15 -30z"/>
 <path d="M2073 647 c-30 -5 -53 -15 -53 -22 0 -15 72 -28 80 -14 4 5 14 7 23 3 10 -3 17 -1 17 6 0 7 8 9 20 5 24 -8 28 20 4 29 -18 7 -22 7 -91 -7z"/>
 <path d="M1950 605 c0 -10 10 -15 30 -15 20 0 30 5 30 15 0 10 -10 15 -30 15 -20 0 -30 -5 -30 -15z"/>
 <path d="M1090 585 c0 -8 5 -15 10 -15 6 0 10 7 10 15 0 8 -4 15 -10 15 -5 0 -10 -7 -10 -15z"/>
 <path d="M890 575 c0 -8 7 -15 15 -15 8 0 15 7 15 15 0 8 -7 15 -15 15 -8 0 -15 -7 -15 -15z"/>
 <path d="M1040 575 c0 -8 7 -15 15 -15 8 0 15 7 15 15 0 8 -7 15 -15 15 -8 0 -15 -7 -15 -15z"/>
 </g>
<g id="layer4" fill="#737373" stroke="none">
 <path d="M985 2380 c3 -5 15 -10 26 -10 11 0 17 5 14 10 -3 6 -15 10 -26 10 -11 0 -17 -4 -14 -10z"/>
 <path d="M1055 2380 c3 -5 19 -10 36 -10 16 0 29 5 29 10 0 6 -16 10 -36 10 -21 0 -33 -4 -29 -10z"/>
 <path d="M1375 2380 c3 -5 12 -10 20 -10 8 0 17 5 20 10 4 6 -5 10 -20 10 -15 0 -24 -4 -20 -10z"/>
 <path d="M1668 2378 c9 -9 15 -9 24 0 9 9 7 12 -12 12 -19 0 -21 -3 -12 -12z"/>
 <path d="M1735 2380 c-4 -6 11 -10 39 -10 25 0 48 5 51 10 4 6 -11 10 -39 10 -25 0 -48 -4 -51 -10z"/>
 <path d="M2070 2374 c0 -9 5 -14 12 -12 18 6 21 28 4 28 -9 0 -16 -7 -16 -16z"/>
 <path d="M392 2368 c7 -20 58 -23 58 -4 0 11 -10 16 -31 16 -20 0 -29 -4 -27 -12z"/>
 <path d="M600 2370 c0 -5 11 -10 25 -10 14 0 25 5 25 10 0 6 -11 10 -25 10 -14 0 -25 -4 -25 -10z"/>
 <path d="M2010 2370 c0 -5 7 -10 15 -10 8 0 15 5 15 10 0 6 -7 10 -15 10 -8 0 -15 -4 -15 -10z"/>
 <path d="M2130 2370 c0 -5 7 -10 15 -10 8 0 15 5 15 10 0 6 -7 10 -15 10 -8 0 -15 -4 -15 -10z"/>
 <path d="M2280 2365 c0 -11 12 -15 39 -15 22 0 46 -3 55 -6 11 -4 16 -1 16 10 0 16 -21 23 -77 24 -23 1 -33 -3 -33 -13z"/>
 <path d="M2468 2369 c-25 -14 -22 -31 4 -27 13 2 24 11 26 21 4 19 -5 21 -30 6z"/>
 <path d="M272 2358 c3 -7 13 -15 22 -16 12 -3 17 1 14 10 -3 7 -13 15 -22 16 -12 3 -17 -1 -14 -10z"/>
 <path d="M205 2349 c-11 -17 25 -81 42 -75 8 3 17 6 19 6 2 0 4 5 4 10 0 6 -7 10 -16 10 -11 0 -14 6 -9 21 9 29 -25 53 -40 28z"/>
 <path d="M2540 2350 c0 -5 -7 -10 -16 -10 -9 0 -14 -6 -11 -12 2 -7 -3 -18 -11 -24 -21 -16 -5 -37 22 -29 11 4 37 10 56 14 23 4 36 13 38 25 4 20 -16 38 -35 31 -7 -2 -15 0 -18 5 -8 13 -25 13 -25 0z"/>
 <path d="M152 2338 c-19 -19 -14 -38 14 -49 35 -13 39 -6 24 31 -14 33 -20 36 -38 18z"/>
 <path d="M830 2315 c0 -12 17 -15 90 -15 73 0 90 3 90 15 0 12 -17 15 -90 15 -73 0 -90 -3 -90 -15z"/>
 <path d="M1630 2321 c0 -16 19 -23 41 -16 17 6 19 9 8 16 -19 12 -49 11 -49 0z"/>
 <path d="M1070 2305 c0 -12 14 -15 65 -15 51 0 65 3 65 15 0 12 -14 15 -65 15 -51 0 -65 -3 -65 -15z"/>
 <path d="M2282 2288 c6 -17 58 -23 58 -8 0 7 -7 10 -15 7 -8 -4 -17 -2 -20 3 -9 15 -27 12 -23 -2z"/>
 <path d="M320 2269 c0 -20 15 -26 25 -9 3 5 12 7 20 3 9 -3 15 1 15 9 0 10 -11 15 -30 16 -23 0 -30 -4 -30 -19z"/>
 <path d="M410 2280 c0 -5 7 -10 15 -10 8 0 15 5 15 10 0 6 -7 10 -15 10 -8 0 -15 -4 -15 -10z"/>
 <path d="M468 2283 c-22 -5 -23 -17 -3 -33 19 -16 47 -5 43 17 -3 18 -14 23 -40 16z"/>
 <path d="M2412 2273 c5 -25 28 -28 28 -4 0 12 -6 21 -16 21 -9 0 -14 -7 -12 -17z"/>
 <path d="M1630 1125 c0 -8 7 -15 15 -15 8 0 15 -7 15 -15 0 -10 10 -15 34 -15 18 0 61 -3 95 -6 50 -6 61 -4 61 8 0 17 -57 28 -141 28 -37 0 -49 4 -49 15 0 8 -7 15 -15 15 -8 0 -15 -7 -15 -15z"/>
 <path d="M1120 1084 c0 -12 9 -14 42 -12 59 4 63 28 4 28 -35 0 -46 -4 -46 -16z"/>
 </g>
<g id="layer5" fill="#99abab" stroke="none">
 <path d="M900 2305 c0 -8 7 -15 15 -15 8 0 15 7 15 15 0 8 -7 15 -15 15 -8 0 -15 -7 -15 -15z"/>
 <path d="M970 2295 c0 -10 10 -15 30 -15 20 0 30 5 30 15 0 10 -10 15 -30 15 -20 0 -30 -5 -30 -15z"/>
 <path d="M1110 2285 c0 -11 11 -15 40 -15 33 0 40 -3 40 -20 0 -11 7 -20 15 -20 18 0 19 29 1 53 -17 22 -96 24 -96 2z"/>
 <path d="M1190 1145 c0 -8 7 -15 15 -15 8 0 15 7 15 15 0 8 -7 15 -15 15 -8 0 -15 -7 -15 -15z"/>
 <path d="M1640 1141 c0 -27 5 -29 93 -37 65 -6 77 -4 77 8 0 12 -17 17 -67 21 -37 3 -69 10 -71 16 -6 19 -32 12 -32 -8z"/>
 <path d="M1020 1105 c0 -12 14 -15 70 -15 56 0 70 3 70 15 0 12 -14 15 -70 15 -56 0 -70 -3 -70 -15z"/>
 <path d="M1830 1105 c0 -9 9 -15 25 -15 16 0 25 6 25 15 0 9 -9 15 -25 15 -16 0 -25 -6 -25 -15z"/>
 <path d="M828 1103 c-34 -3 -48 -8 -48 -19 0 -16 18 -17 109 -8 41 5 61 11 61 20 0 14 -16 15 -122 7z"/>
 <path d="M1930 1097 c0 -8 10 -17 23 -21 35 -9 47 -7 47 9 0 8 -6 15 -12 15 -7 0 -23 3 -35 6 -17 5 -23 2 -23 -9z"/>
 <path d="M2005 649 c-49 -11 -111 -22 -137 -26 -32 -4 -48 -10 -48 -20 0 -12 20 -13 113 -9 140 5 279 34 275 56 -5 22 -95 22 -203 -1z"/>
 <path d="M760 641 c0 -17 52 -51 94 -62 22 -6 55 -15 72 -20 41 -12 78 -11 109 3 47 21 30 36 -52 43 -43 3 -106 15 -141 25 -70 22 -82 24 -82 11z"/>
 <path d="M1190 615 c0 -8 7 -15 15 -15 8 0 15 7 15 15 0 8 -7 15 -15 15 -8 0 -15 -7 -15 -15z"/>
 <path d="M2360 575 c0 -21 -33 -35 -85 -35 -66 0 -55 -24 13 -28 44 -3 56 1 77 22 28 28 33 56 10 56 -8 0 -15 -7 -15 -15z"/>
 <path d="M460 561 c0 -13 50 -51 66 -51 24 0 15 28 -11 34 -14 4 -25 11 -25 16 0 6 -7 10 -15 10 -8 0 -15 -4 -15 -9z"/>
 </g>
<g id="layer6" fill="#7b8484" stroke="none">
 <path d="M762 2378 c25 -7 47 -6 65 0 24 9 18 10 -37 10 -61 0 -63 -1 -28 -10z"/>
 <path d="M895 2380 c3 -5 12 -10 20 -10 8 0 17 5 20 10 4 6 -5 10 -20 10 -15 0 -24 -4 -20 -10z"/>
 <path d="M1025 2379 c18 -5 33 -5 39 1 7 7 -4 10 -29 9 -40 -1 -40 -1 -10 -10z"/>
 <path d="M1713 2383 c9 -2 25 -2 35 0 9 3 1 5 -18 5 -19 0 -27 -2 -17 -5z"/>
 <path d="M1815 2380 c3 -5 17 -10 30 -10 13 0 27 5 30 10 4 6 -8 10 -30 10 -22 0 -34 -4 -30 -10z"/>
 <path d="M1945 2380 c7 -12 52 -12 80 0 15 6 6 9 -33 9 -33 1 -51 -3 -47 -9z"/>
 <path d="M268 2373 c-10 -2 -18 -11 -18 -20 0 -11 6 -14 23 -9 12 3 30 6 40 6 9 0 17 7 17 15 0 15 -25 18 -62 8z"/>
 <path d="M370 2365 c0 -8 7 -15 15 -15 8 0 15 7 15 15 0 8 -7 15 -15 15 -8 0 -15 -7 -15 -15z"/>
 <path d="M440 2364 c0 -11 5 -14 16 -10 9 3 27 6 40 6 13 0 24 5 24 10 0 6 -18 10 -40 10 -30 0 -40 -4 -40 -16z"/>
 <path d="M2160 2370 c0 -5 7 -10 15 -10 8 0 15 5 15 10 0 6 -7 10 -15 10 -8 0 -15 -4 -15 -10z"/>
 <path d="M2250 2370 c0 -5 16 -10 35 -10 19 0 35 5 35 10 0 6 -16 10 -35 10 -19 0 -35 -4 -35 -10z"/>
 <path d="M2430 2365 c0 -9 9 -15 23 -15 12 0 32 -3 45 -6 15 -5 22 -2 22 9 0 8 -13 17 -31 21 -47 9 -59 7 -59 -9z"/>
 <path d="M174 2359 c-8 -14 11 -33 25 -25 6 4 11 14 11 22 0 16 -26 19 -36 3z"/>
 <path d="M2550 2356 c0 -16 27 -29 41 -20 19 11 9 34 -16 34 -15 0 -25 -6 -25 -14z"/>
 <path d="M2627 2363 c-14 -13 -6 -31 16 -37 18 -5 20 -8 7 -16 -8 -5 -25 -10 -37 -10 -13 0 -23 -6 -23 -14 0 -21 20 -30 33 -17 6 6 19 11 28 11 9 0 27 9 40 20 l24 20 -28 25 c-28 25 -48 31 -60 18z"/>
 <path d="M90 2347 c-41 -21 -37 -44 14 -68 46 -21 66 -19 66 7 0 8 -10 14 -24 14 -32 0 -44 20 -17 27 25 6 28 33 4 33 -10 0 -29 -6 -43 -13z"/>
 <path d="M622 2321 c-23 -14 12 -21 114 -21 77 0 94 3 94 15 0 12 -17 15 -97 15 -54 0 -104 -4 -111 -9z"/>
 <path d="M1682 2321 c-28 -17 23 -21 289 -21 232 0 269 2 269 15 0 13 -37 15 -272 15 -150 0 -279 -4 -286 -9z"/>
 <path d="M1010 2305 c0 -10 10 -15 30 -15 20 0 30 5 30 15 0 10 -10 15 -30 15 -20 0 -30 -5 -30 -15z"/>
 <path d="M1630 2300 c0 -5 7 -10 15 -10 8 0 15 5 15 10 0 6 -7 10 -15 10 -8 0 -15 -4 -15 -10z"/>
 <path d="M195 2290 c-10 -16 4 -30 31 -30 27 0 33 24 8 34 -22 8 -32 8 -39 -4z"/>
 <path d="M2527 2294 c-14 -15 -6 -34 14 -34 14 0 19 5 17 17 -3 18 -20 27 -31 17z"/>
 <path d="M292 2275 c4 -24 118 -33 118 -9 0 10 -10 14 -32 14 -18 -1 -46 2 -61 6 -24 6 -28 4 -25 -11z"/>
 <path d="M2426 2283 c-4 -4 -22 -6 -41 -5 -27 2 -35 -1 -35 -14 0 -14 7 -16 38 -10 20 3 45 6 55 6 9 0 17 7 17 15 0 15 -21 20 -34 8z"/>
 <path d="M440 2265 c0 -8 7 -15 15 -15 8 0 15 7 15 15 0 8 -7 15 -15 15 -8 0 -15 -7 -15 -15z"/>
 <path d="M1630 1165 c0 -16 6 -25 15 -25 9 0 15 9 15 25 0 16 -6 25 -15 25 -9 0 -15 -9 -15 -25z"/>
 <path d="M1650 1105 c0 -8 9 -15 20 -15 11 0 20 7 20 15 0 8 -9 15 -20 15 -11 0 -20 -7 -20 -15z"/>
 <path d="M1068 1103 c-42 -3 -58 -8 -58 -18 0 -11 12 -15 48 -14 78 1 145 13 150 27 4 12 -10 13 -140 5z"/>
 <path d="M1790 1095 c0 -8 8 -15 19 -15 10 0 33 -3 50 -6 24 -5 31 -3 31 9 0 8 -13 17 -31 21 -50 10 -69 7 -69 -9z"/>
 </g>
<g id="layer7" fill="#daeaea" stroke="none">
 <path d="M574 2286 c-18 -19 -36 -57 -31 -63 3 -2 11 5 17 17 11 20 17 21 68 15 70 -8 122 -32 218 -101 41 -30 78 -54 81 -54 3 0 17 -8 31 -19 41 -28 110 -49 185 -56 l67 -7 0 41 c0 44 -23 59 -33 21 -6 -22 -26 -21 -122 6 -57 16 -184 89 -203 116 -20 27 -114 66 -190 78 -36 6 -68 12 -71 14 -3 2 -11 -2 -17 -8z"/>
 <path d="M1824 2269 c-191 -15 -190 -14 -186 -206 2 -117 6 -143 18 -143 11 0 14 25 14 144 l0 144 43 10 c36 9 122 20 217 27 14 1 98 3 188 3 138 2 162 4 162 17 0 14 -24 15 -182 14 -101 -2 -224 -6 -274 -10z"/>
 <path d="M2304 2218 c3 -13 6 -33 6 -45 0 -14 6 -23 15 -23 19 0 21 60 3 78 -19 19 -31 14 -24 -10z"/>
 <path d="M2306 2093 c-10 -64 -7 -93 9 -93 10 0 15 10 15 28 0 15 3 44 6 65 5 29 3 37 -8 37 -10 0 -18 -14 -22 -37z"/>
 <path d="M526 1965 c-10 -26 -7 -35 9 -35 17 0 19 18 6 38 -7 11 -10 10 -15 -3z"/>
 <path d="M520 1770 c0 -109 2 -130 15 -130 13 0 15 21 15 130 0 109 -2 130 -15 130 -13 0 -15 -21 -15 -130z"/>
 <path d="M2290 1530 c0 -29 4 -40 15 -40 11 0 15 11 15 40 0 29 -4 40 -15 40 -11 0 -15 -11 -15 -40z"/>
 <path d="M1640 1474 c0 -82 12 -116 38 -113 22 3 101 -11 124 -22 99 -48 151 -79 185 -110 47 -41 164 -96 221 -105 40 -6 48 -4 64 16 10 12 18 31 18 41 0 29 -27 23 -34 -7 -6 -24 -10 -26 -43 -21 -56 9 -197 90 -216 123 -4 8 -12 14 -17 14 -5 0 -33 15 -62 33 -29 18 -80 41 -113 51 -33 11 -70 23 -82 29 -12 5 -29 7 -37 4 -14 -5 -16 5 -16 68 0 60 -3 75 -15 75 -12 0 -15 -15 -15 -76z"/>
 <path d="M2280 1375 c0 -16 6 -25 15 -25 9 0 15 9 15 25 0 16 -6 25 -15 25 -9 0 -15 -9 -15 -25z"/>
 <path d="M1100 1320 c-30 -11 -66 -19 -81 -19 -14 -1 -29 -5 -35 -9 -5 -5 -29 -14 -54 -21 -25 -6 -54 -16 -65 -21 -34 -15 -162 -40 -240 -47 -66 -5 -75 -4 -75 11 0 9 -7 16 -15 16 -19 0 -19 -5 1 -35 14 -21 24 -25 68 -25 115 1 289 40 511 116 52 18 65 18 65 -1 0 -8 7 -15 15 -15 10 0 15 11 15 35 0 32 -3 35 -27 34 -16 -1 -53 -9 -83 -19z"/>
 <path d="M2270 1265 c0 -24 5 -35 15 -35 10 0 15 11 15 35 0 24 -5 35 -15 35 -10 0 -15 -11 -15 -35z"/>
 <path d="M573 1073 c-14 -5 -18 -33 -5 -33 10 1 42 26 42 34 0 7 -19 7 -37 -1z"/>
 <path d="M1923 1065 c-3 -9 -3 -18 0 -21 10 -10 47 7 47 22 0 19 -39 18 -47 -1z"/>
 <path d="M2190 1065 c0 -8 7 -15 15 -15 8 0 15 7 15 15 0 8 -7 15 -15 15 -8 0 -15 -7 -15 -15z"/>
 <path d="M2280 1055 c0 -9 9 -15 25 -15 16 0 25 6 25 15 0 9 -9 15 -25 15 -16 0 -25 -6 -25 -15z"/>
 <path d="M800 1046 c0 -9 18 -15 58 -19 31 -3 86 -13 122 -21 76 -18 180 -12 180 10 0 11 -17 14 -72 13 -40 -1 -106 6 -146 15 -92 20 -142 21 -142 2z"/>
 <path d="M1840 1053 c-8 -2 -24 -8 -35 -13 -57 -25 -99 -40 -115 -40 -9 0 -24 -8 -33 -18 -14 -15 -17 -42 -17 -149 0 -93 4 -133 13 -140 6 -6 33 -11 60 -12 37 -1 47 2 47 15 0 11 -9 15 -32 14 -18 -1 -39 -2 -45 -1 -10 1 -13 34 -13 129 l0 127 110 35 c63 20 110 40 110 47 0 13 -22 16 -50 6z"/>
 <path d="M510 1039 c0 -7 -10 -23 -22 -36 -12 -13 -19 -26 -15 -29 11 -11 39 5 44 26 3 11 12 20 20 20 8 0 13 6 11 13 -6 16 -38 22 -38 6z"/>
 <path d="M1180 1016 c0 -9 7 -16 16 -16 17 0 14 22 -4 28 -7 2 -12 -3 -12 -12z"/>
 <path d="M620 938 c0 -47 27 -134 57 -186 14 -24 27 -41 29 -40 2 2 -4 24 -13 48 -8 25 -21 65 -28 90 -7 25 -16 54 -21 65 -7 18 -6 18 9 6 9 -7 17 -19 17 -27 0 -25 71 -134 103 -158 75 -58 117 -62 335 -38 39 4 72 4 72 0 0 -4 7 -8 15 -8 8 0 15 9 15 19 0 34 -27 34 -257 2 -77 -10 -135 10 -194 69 -26 26 -51 60 -55 75 -11 45 -50 110 -67 113 -13 3 -17 -4 -17 -30z"/>
 <path d="M2340 910 c0 -11 7 -20 15 -20 8 0 15 9 15 20 0 11 -7 20 -15 20 -8 0 -15 -9 -15 -20z"/>
 <path d="M2360 840 c0 -5 7 -10 15 -10 8 0 15 5 15 10 0 6 -7 10 -15 10 -8 0 -15 -4 -15 -10z"/>
 <path d="M2343 806 c4 -10 1 -13 -9 -9 -25 9 -244 -30 -244 -44 0 -16 21 -16 91 -3 30 6 81 11 115 12 49 0 63 4 73 20 13 22 7 38 -16 38 -9 0 -13 -6 -10 -14z"/>
 <path d="M1943 742 c-49 -11 -73 -21 -73 -30 0 -11 8 -13 33 -8 17 4 60 12 95 19 37 7 62 17 62 24 0 16 -24 15 -117 -5z"/>
 <path d="M2275 710 c-10 -11 -16 -23 -12 -26 7 -7 57 25 57 37 0 16 -26 9 -45 -11z"/>
 <path d="M1780 705 c0 -10 11 -15 35 -15 24 0 35 5 35 15 0 10 -11 15 -35 15 -24 0 -35 -5 -35 -15z"/>
 <path d="M492 569 c2 -7 10 -15 17 -17 8 -3 12 1 9 9 -2 7 -10 15 -17 17 -8 3 -12 -1 -9 -9z"/>
 <path d="M2255 549 c-4 -6 -5 -13 -2 -16 7 -7 27 6 27 18 0 12 -17 12 -25 -2z"/>
 </g>
<g id="layer8" fill="#b8bbbb" stroke="none">
 <path d="M865 2379 c18 -5 33 -5 39 1 7 7 -4 10 -29 9 -40 -1 -40 -1 -10 -10z"/>
 <path d="M770 2306 c0 -17 14 -21 95 -30 28 -4 105 -20 173 -37 68 -17 130 -28 138 -25 11 4 14 -10 14 -74 0 -67 3 -80 16 -80 15 0 16 13 12 105 -3 58 -9 110 -14 115 -8 7 -141 21 -356 37 -67 5 -78 3 -78 -11z"/>
 <path d="M1644 2309 c-14 -24 15 -31 100 -24 63 5 86 11 86 21 0 11 -20 14 -89 14 -54 0 -93 -4 -97 -11z"/>
 <path d="M2240 2305 c0 -8 9 -15 20 -15 24 0 27 15 4 24 -22 9 -24 8 -24 -9z"/>
 <path d="M1630 1800 c0 -340 2 -390 15 -390 13 0 15 50 15 390 0 340 -2 390 -15 390 -13 0 -15 -50 -15 -390z"/>
 <path d="M1190 1242 l0 -69 -182 -22 c-101 -12 -250 -26 -333 -32 -135 -9 -152 -12 -182 -35 -37 -28 -54 -84 -33 -109 21 -25 30 -17 30 29 0 29 5 46 14 49 8 3 165 6 350 7 l336 0 0 -25 c0 -16 6 -25 15 -25 23 0 19 57 -4 72 -17 11 -18 13 -4 23 12 9 17 37 21 108 4 85 3 97 -12 97 -13 0 -16 -12 -16 -68z m-62 -149 c-21 -2 -55 -2 -75 0 -21 2 -4 4 37 4 41 0 58 -2 38 -4z"/>
 <path d="M1643 1214 c-3 -9 -2 -33 3 -53 10 -40 5 -38 169 -59 l70 -9 -112 -2 c-100 -1 -113 -3 -113 -18 0 -16 11 -18 115 -15 96 3 115 6 115 19 0 12 8 14 43 9 23 -3 77 -9 120 -12 67 -6 77 -4 77 10 0 9 -3 16 -6 16 -36 0 -217 47 -275 71 -143 59 -195 70 -206 43z"/>
 <path d="M2320 1075 c0 -8 7 -15 15 -15 9 0 18 -7 21 -15 6 -16 34 -21 34 -7 0 12 -44 52 -58 52 -7 0 -12 -7 -12 -15z"/>
 <path d="M1630 835 c0 -104 2 -125 15 -125 13 0 15 21 15 125 0 104 -2 125 -15 125 -13 0 -15 -21 -15 -125z"/>
 <path d="M2360 885 c0 -8 7 -15 15 -15 8 0 15 7 15 15 0 8 -7 15 -15 15 -8 0 -15 -7 -15 -15z"/>
 <path d="M2360 799 c0 -18 2 -19 15 -9 8 7 15 16 15 21 0 5 -7 9 -15 9 -9 0 -15 -9 -15 -21z"/>
 <path d="M680 733 c1 -21 73 -104 85 -99 8 3 17 1 19 -3 13 -21 248 -62 296 -52 8 1 32 2 53 2 20 -1 37 3 37 9 0 5 7 10 15 10 21 0 35 32 35 79 0 30 -4 41 -15 41 -10 0 -15 -10 -15 -34 l0 -33 -61 -7 c-160 -16 -263 0 -362 59 -56 34 -87 43 -87 28z"/>
 <path d="M1975 684 c-66 -14 -165 -28 -220 -32 -84 -6 -100 -10 -103 -24 -3 -16 5 -18 71 -18 42 0 77 -4 79 -9 3 -9 57 -2 208 28 58 12 134 21 170 21 48 0 71 5 90 20 14 10 21 22 17 27 -20 19 -192 12 -312 -13z"/>
 <path d="M2349 618 c-14 -53 -14 -53 -57 -56 -34 -3 -43 -7 -40 -20 5 -28 70 -28 104 1 23 20 28 32 28 72 1 66 -18 67 -35 3z"/>
 <path d="M454 606 c-8 -22 26 -67 63 -82 40 -17 43 -17 43 -1 0 16 -42 57 -57 57 -7 0 -15 9 -18 20 -7 23 -23 26 -31 6z"/>
 </g>
<g id="layer9" fill="#d3d4d4" stroke="none">
 <path d="M673 2314 c-7 -3 -13 -12 -13 -20 0 -10 12 -14 39 -14 73 0 175 -28 281 -78 145 -69 230 -78 230 -27 0 37 -11 55 -33 55 -12 0 -76 14 -143 30 -165 41 -333 66 -361 54z"/>
 <path d="M1747 2306 c-68 -8 -92 -16 -103 -30 -8 -11 -14 -23 -14 -28 0 -15 29 -8 38 9 9 14 42 17 296 21 257 4 287 6 284 21 -3 14 -28 16 -208 17 -113 1 -245 -4 -293 -10z"/>
 <path d="M1190 1905 c0 -113 2 -135 15 -135 13 0 15 22 15 135 0 113 -2 135 -15 135 -13 0 -15 -22 -15 -135z"/>
 <path d="M1190 1445 c0 -104 2 -125 15 -125 13 0 15 21 15 125 0 104 -2 125 -15 125 -13 0 -15 -21 -15 -125z"/>
 <path d="M2306 1378 c-3 -46 -8 -127 -12 -180 l-6 -98 -36 0 c-103 1 -253 50 -388 128 -61 35 -170 76 -183 67 -5 -3 -11 9 -13 27 -2 23 -9 34 -22 36 -20 4 -20 -3 1 -102 8 -37 11 -40 68 -57 33 -9 93 -31 134 -48 88 -37 222 -67 379 -86 62 -7 116 -16 120 -20 4 -4 7 -57 7 -118 0 -79 4 -111 13 -114 6 -3 12 -3 12 -1 16 162 7 249 -26 262 -11 4 -14 41 -14 196 0 157 -2 190 -14 190 -11 0 -16 -21 -20 -82z"/>
 <path d="M1149 1226 c-8 -8 -253 -55 -344 -66 -49 -6 -135 -13 -190 -14 -91 -3 -100 -5 -103 -23 -2 -14 4 -22 19 -26 51 -13 641 45 667 65 21 17 15 55 -10 62 -28 7 -33 7 -39 2z"/>
 <path d="M1890 1075 c0 -11 12 -15 50 -15 38 0 50 4 50 15 0 11 -12 15 -50 15 -38 0 -50 -4 -50 -15z"/>
 <path d="M492 1064 c-14 -10 -22 -26 -22 -45 0 -38 27 -40 32 -1 3 24 8 28 48 32 25 3 180 1 344 -3 188 -5 303 -4 309 2 28 28 -10 31 -347 31 -290 -1 -346 -3 -364 -16z"/>
 <path d="M1655 1050 c-4 -16 -11 -32 -16 -35 -5 -4 -9 -15 -9 -26 0 -28 34 -21 38 8 3 17 14 24 55 33 82 19 87 21 87 36 0 11 -16 14 -74 14 l-74 0 -7 -30z"/>
 <path d="M1190 955 c0 -33 4 -45 15 -45 11 0 15 12 15 45 0 33 -4 45 -15 45 -11 0 -15 -12 -15 -45z"/>
 <path d="M610 940 c0 -5 7 -10 15 -10 8 0 15 5 15 10 0 6 -7 10 -15 10 -8 0 -15 -4 -15 -10z"/>
 <path d="M620 880 c0 -5 7 -10 15 -10 8 0 15 5 15 10 0 6 -7 10 -15 10 -8 0 -15 -4 -15 -10z"/>
 <path d="M1190 795 c0 -51 3 -65 15 -65 12 0 15 14 15 65 0 51 -3 65 -15 65 -12 0 -15 -14 -15 -65z"/>
 <path d="M635 828 c4 -13 13 -28 20 -34 7 -5 13 -18 12 -29 -3 -26 140 -110 223 -131 52 -13 90 -15 185 -10 65 3 124 11 130 17 14 14 -23 41 -47 33 -10 -3 -75 -6 -145 -6 -108 -1 -135 2 -173 19 -66 30 -126 77 -156 123 -29 44 -60 55 -49 18z"/>
 <path d="M2080 725 c-47 -7 -119 -20 -160 -28 -41 -9 -114 -19 -161 -23 -74 -6 -87 -4 -92 10 -7 18 -37 22 -37 6 0 -6 7 -22 16 -35 15 -23 23 -25 84 -25 38 0 139 14 225 30 165 31 280 39 287 18 6 -17 57 23 58 45 0 15 -9 17 -67 16 -38 -1 -106 -7 -153 -14z"/>
 <path d="M2360 666 c0 -8 -7 -16 -15 -20 -8 -3 -15 -14 -15 -25 0 -11 -11 -28 -25 -39 -31 -25 -32 -42 -2 -42 31 0 57 29 62 70 2 18 9 38 14 43 15 15 14 27 -4 27 -8 0 -15 -6 -15 -14z"/>
 <path d="M472 594 c1 -9 9 -19 16 -22 9 -3 13 2 10 14 -1 9 -9 19 -16 22 -9 3 -13 -2 -10 -14z"/>
 </g>
<g id="layer10" fill="#585959" stroke="none">
 <path d="M637 2383 c-4 -3 -47 -5 -97 -5 -49 1 -90 -3 -90 -7 0 -5 -21 -4 -47 1 -33 6 -62 5 -92 -3 -34 -10 -46 -10 -49 -1 -5 17 -38 15 -56 -3 -8 -8 -21 -12 -29 -9 -21 8 -90 -23 -85 -38 3 -7 18 -20 34 -28 16 -8 31 -18 32 -22 6 -13 39 -9 52 7 11 13 15 12 37 -5 31 -24 40 -25 60 -5 11 12 18 13 29 4 7 -6 19 -9 26 -6 7 2 24 0 37 -5 14 -5 32 -6 40 -2 32 14 61 13 61 -2 0 -20 7 -18 53 19 l41 32 316 1 c173 0 543 1 821 2 436 2 511 0 543 -13 20 -9 40 -23 43 -31 4 -11 13 -14 32 -8 14 4 35 6 46 6 10 -1 25 3 31 9 9 7 15 5 22 -6 12 -22 82 -11 82 13 0 13 2 13 18 -1 20 -18 52 -23 52 -8 0 5 14 11 30 15 43 8 48 31 14 63 -23 21 -31 24 -47 14 -15 -10 -22 -9 -36 3 -20 19 -51 21 -51 5 0 -8 -12 -9 -37 -4 -21 5 -74 10 -118 12 -146 6 -1713 12 -1718 6z"/>
 <path d="M1632 1094 c3 -16 14 -19 71 -22 55 -2 67 0 67 13 0 11 -11 15 -47 15 -27 0 -59 3 -72 7 -19 5 -22 2 -19 -13z"/>
 </g>
<g id="layer11" fill="#8d0609" stroke="none">
 <path d="M75 2361 c-52 -9 -65 -17 -65 -45 0 -27 35 -46 85 -46 24 0 35 5 35 15 0 8 -9 15 -19 15 -20 0 -37 17 -27 27 3 3 25 8 51 10 29 4 45 10 45 19 0 15 -34 17 -105 5z"/>
 <path d="M2660 2357 c0 -8 7 -17 15 -21 23 -8 18 -25 -10 -32 -35 -9 -32 -34 4 -34 54 0 81 16 81 50 0 24 -5 31 -27 36 -16 3 -36 8 -45 11 -11 3 -18 -1 -18 -10z"/>
 <path d="M1378 2323 c-58 -3 -78 -7 -78 -18 0 -7 8 -16 18 -19 39 -12 198 -36 238 -36 33 0 46 -5 54 -19 6 -12 10 -100 10 -215 0 -169 2 -196 15 -196 13 0 15 32 13 253 l-3 252 -95 1 c-52 0 -130 -1 -172 -3z"/>
 <path d="M1200 2295 c0 -8 7 -15 15 -15 8 0 15 7 15 15 0 8 -7 15 -15 15 -8 0 -15 -7 -15 -15z"/>
 <path d="M1621 1435 c-1 -98 1 -115 14 -115 13 0 15 17 14 115 -1 87 -4 115 -14 115 -10 0 -13 -28 -14 -115z"/>
 <path d="M1202 1168 l3 -113 114 1 c118 2 191 17 191 41 0 7 -1 14 -2 14 -2 1 -64 4 -138 8 -110 5 -135 9 -136 21 -1 8 -2 43 -2 78 -2 48 -5 62 -17 62 -13 0 -15 -17 -13 -112z"/>
 <path d="M1620 1090 c0 -5 7 -10 15 -10 8 0 15 5 15 10 0 6 -7 10 -15 10 -8 0 -15 -4 -15 -10z"/>
 <path d="M2423 928 c-5 -7 -22 -44 -38 -83 -16 -38 -39 -83 -53 -99 -31 -38 -112 -96 -134 -96 -9 0 -20 -4 -23 -10 -3 -5 -15 -10 -26 -10 -10 0 -19 -7 -19 -15 0 -18 5 -19 63 -1 26 8 47 11 47 6 0 -4 -43 -50 -95 -102 -52 -52 -95 -98 -95 -102 0 -32 144 57 227 142 136 138 187 228 181 324 -3 52 -17 70 -35 46z"/>
 <path d="M370 860 c0 -5 7 -10 15 -10 8 0 15 5 15 10 0 6 -7 10 -15 10 -8 0 -15 -4 -15 -10z"/>
 <path d="M1200 686 c0 -61 -3 -84 -12 -83 -7 0 -32 -3 -55 -7 -31 -6 -43 -13 -43 -26 0 -23 -32 -36 -122 -50 -61 -9 -92 -8 -164 4 -49 8 -120 17 -159 20 -38 2 -78 8 -87 11 -30 12 -20 -12 14 -38 69 -50 201 -68 320 -43 42 9 106 16 142 16 l65 0 -11 -31 c-6 -16 -8 -32 -6 -35 3 -2 49 3 104 11 54 8 102 15 107 15 4 0 7 -13 7 -29 0 -30 22 -57 39 -46 6 3 8 19 4 35 -3 16 -2 45 1 65 l7 35 74 0 c73 0 73 0 80 -29 7 -31 -12 -121 -26 -121 -5 0 -9 -4 -9 -10 0 -5 9 -10 19 -10 25 0 71 55 71 86 0 21 3 24 28 18 68 -14 132 -39 199 -75 61 -33 76 -37 98 -29 15 6 50 10 80 10 59 0 72 9 55 39 -8 16 -17 19 -44 14 -53 -8 -169 16 -243 51 -90 43 -97 53 -90 121 6 56 -4 71 -27 40 -9 -13 -26 -14 -113 -5 -64 6 -117 17 -140 29 -21 10 -57 24 -80 31 -33 10 -43 18 -43 34 0 37 -12 66 -26 66 -11 0 -14 -19 -14 -84z"/>
 <path d="M2080 605 c0 -8 7 -15 15 -15 8 0 15 7 15 15 0 8 -7 15 -15 15 -8 0 -15 -7 -15 -15z"/>
 <path d="M1050 565 c0 -8 5 -15 10 -15 6 0 10 7 10 15 0 8 -4 15 -10 15 -5 0 -10 -7 -10 -15z"/>
 <path d="M641 357 c-30 -37 -11 -111 58 -227 56 -93 74 -111 134 -125 24 -6 26 -5 21 11 -4 11 -33 59 -65 109 l-58 90 28 6 c40 8 101 48 101 65 0 17 -12 18 -27 3 -8 -8 -27 -2 -72 25 -33 21 -63 41 -66 47 -9 13 -41 11 -54 -4z"/>
 <path d="M2073 273 c-7 -2 -13 -11 -13 -19 0 -8 -6 -14 -14 -14 -12 0 -186 -220 -186 -235 0 -3 14 -5 32 -5 36 0 74 36 172 164 49 64 56 78 46 95 -11 21 -16 23 -37 14z"/>
 </g>
<g id="layer12" fill="#b30a0e" stroke="none">
 <path d="M1210 2295 c-14 -38 -12 -65 5 -65 8 0 15 7 15 15 0 17 2 18 55 5 22 -6 80 -17 129 -25 75 -12 95 -20 131 -50 24 -19 48 -35 53 -35 7 0 11 -184 14 -512 2 -282 3 -513 3 -513 0 0 -41 3 -91 8 l-92 9 -5 40 c-3 22 -14 46 -24 53 -20 15 -136 31 -152 20 -8 -4 -11 18 -11 68 0 96 -8 137 -28 137 -13 0 -14 -18 -8 -137 4 -76 10 -154 14 -173 l8 -35 124 -5 c69 -3 118 -8 110 -13 -8 -4 -69 -10 -135 -15 l-120 -7 1 -150 c1 -82 4 -173 9 -201 7 -50 9 -52 44 -58 20 -3 61 -18 91 -32 51 -24 125 -36 238 -38 30 -1 32 -3 32 -38 0 -24 7 -45 20 -58 53 -53 230 -114 320 -110 19 1 40 1 45 0 13 -4 -122 -21 -157 -21 -16 0 -28 -3 -28 -7 1 -4 36 -29 80 -57 l79 -49 -66 -96 c-36 -52 -74 -104 -85 -116 -25 -28 -23 -34 15 -34 29 0 39 10 111 109 75 102 82 109 128 120 65 17 63 47 -10 123 l-35 37 31 18 c18 10 32 23 32 30 0 6 25 36 56 65 58 55 130 146 122 154 -9 8 -118 -30 -118 -42 0 -12 -132 -124 -170 -144 -39 -21 -244 3 -284 33 -9 7 -19 27 -22 45 l-6 32 81 0 c62 0 81 3 81 14 0 9 -23 15 -83 20 -46 4 -91 4 -99 1 -14 -6 -15 0 -11 34 5 34 3 41 -11 41 -11 0 -16 -9 -16 -26 0 -21 -3 -25 -17 -19 -36 15 -89 25 -133 25 -32 0 -68 11 -125 40 -44 22 -86 40 -92 40 -9 0 -13 20 -13 64 l0 64 44 11 c24 6 49 17 56 26 7 8 18 15 25 15 8 0 34 24 60 54 42 50 50 55 113 67 37 8 74 13 83 12 12 -2 19 8 23 30 7 42 -1 1080 -10 1129 -6 41 -5 41 -134 53 -36 4 -94 13 -130 22 -36 8 -84 17 -107 20 -39 5 -44 3 -53 -22z m850 -1973 c0 -5 -13 -18 -28 -29 l-28 -21 -50 22 -49 21 70 6 c39 3 73 6 78 7 4 1 7 -2 7 -6z"/>
 <path d="M590 1030 c0 -20 5 -30 15 -30 10 0 15 10 15 30 0 20 -5 30 -15 30 -10 0 -15 -10 -15 -30z"/>
 <path d="M411 923 l-40 -38 10 -57 c14 -87 45 -161 91 -217 51 -63 85 -81 163 -87 108 -8 224 -27 219 -36 -3 -4 -16 -8 -30 -8 -13 0 -24 -4 -24 -10 0 -5 -17 -12 -37 -16 -124 -22 -196 -146 -122 -208 17 -14 40 -28 52 -32 20 -5 123 -149 140 -196 5 -13 17 -18 47 -18 l41 0 -15 28 c-8 15 -39 63 -69 107 l-54 80 48 35 c26 19 75 56 109 82 34 27 84 56 111 65 42 15 50 22 55 50 6 31 9 33 45 33 28 0 39 4 39 15 0 12 -15 15 -72 16 l-73 1 47 21 c77 35 62 44 -79 43 -120 -1 -131 1 -184 26 -35 18 -72 47 -98 79 -44 51 -62 59 -41 17 32 -62 105 -119 185 -144 72 -23 2 -15 -101 11 -194 49 -262 105 -314 261 -30 86 -30 87 -10 101 21 15 27 33 11 33 -5 0 -27 -17 -50 -37z m546 -439 c15 -14 14 -17 -5 -37 -17 -17 -37 -22 -93 -25 -65 -4 -71 -3 -58 11 8 9 40 22 72 29 34 7 57 17 57 25 0 17 8 16 27 -3z m-214 -177 c63 -41 67 -46 48 -56 -47 -26 -133 -2 -144 40 -6 24 9 73 20 65 5 -2 39 -25 76 -49z"/>
 <path d="M2110 605 c0 -8 7 -15 15 -15 8 0 15 7 15 15 0 8 -7 15 -15 15 -8 0 -15 -7 -15 -15z"/>
 <path d="M1970 595 c0 -12 13 -15 55 -15 42 0 55 3 55 15 0 12 -13 15 -55 15 -42 0 -55 -3 -55 -15z"/>
 <path d="M1342 518 c-5 -7 -12 -22 -16 -34 -5 -16 -12 -20 -36 -16 l-31 4 7 -43 c10 -66 39 -92 74 -69 13 9 12 12 -4 25 -17 13 -18 15 -3 15 13 0 17 9 17 39 0 22 5 43 10 46 12 8 13 45 1 45 -5 0 -13 -6 -19 -12z"/>
 <path d="M1485 498 c3 -13 9 -33 12 -45 7 -28 33 -31 33 -4 0 34 -19 71 -36 71 -12 0 -15 -5 -9 -22z"/>
 <path d="M1547 464 c-4 -4 -7 -18 -7 -31 0 -32 -17 -63 -35 -63 -22 0 -18 -15 10 -47 l25 -28 25 30 c14 17 30 47 36 68 5 20 14 37 19 37 6 0 10 7 10 15 0 8 -8 15 -17 15 -10 0 -27 3 -38 6 -11 3 -24 2 -28 -2z"/>
 <path d="M1180 445 c0 -8 7 -15 15 -15 8 0 15 7 15 15 0 8 -7 15 -15 15 -8 0 -15 -7 -15 -15z"/>
 <path d="M1120 435 c0 -8 7 -15 15 -15 8 0 15 7 15 15 0 8 -7 15 -15 15 -8 0 -15 -7 -15 -15z"/>
 <path d="M1650 435 c0 -8 9 -15 20 -15 24 0 27 15 4 24 -22 9 -24 8 -24 -9z"/>
 <path d="M1710 412 c0 -9 64 -42 80 -42 21 0 8 17 -25 33 -39 19 -55 21 -55 9z"/>
 <path d="M1490 400 c0 -5 7 -10 15 -10 8 0 15 5 15 10 0 6 -7 10 -15 10 -8 0 -15 -4 -15 -10z"/>
 <path d="M1402 341 c-11 -7 -10 -10 3 -15 26 -10 35 -7 35 9 0 17 -18 19 -38 6z"/>
 </g>
<g id="layer13" fill="#db0d11" stroke="none">
 <path d="M1219 2263 c-11 -13 -14 -90 -13 -417 2 -482 10 -656 30 -656 8 0 14 9 14 20 0 11 6 20 13 21 6 0 22 2 35 3 13 2 25 -1 28 -6 3 -4 16 -8 29 -8 29 0 55 -34 55 -71 0 -33 7 -36 109 -44 44 -4 81 -11 81 -15 0 -4 -29 -13 -65 -20 -72 -14 -78 -18 -124 -77 -18 -24 -37 -43 -43 -43 -5 0 -21 -9 -35 -19 -13 -11 -44 -23 -69 -27 l-44 -6 0 -84 c0 -80 1 -84 23 -84 12 0 54 -16 92 -36 54 -28 88 -38 149 -45 44 -4 92 -13 108 -20 34 -14 37 -12 49 38 10 46 12 397 2 407 -5 4 -8 40 -8 79 -1 817 -6 1057 -20 1057 -9 0 -15 -9 -15 -25 l0 -25 -51 36 c-41 28 -68 38 -137 50 -48 8 -105 18 -127 24 -52 12 -50 13 -66 -7z"/>
 <path d="M519 1008 c-34 -29 -73 -62 -86 -73 l-25 -21 33 -92 c28 -81 40 -101 93 -156 46 -48 75 -68 121 -85 146 -55 345 -81 345 -46 0 8 -3 15 -7 15 -32 1 -148 32 -181 49 -38 19 -112 94 -112 113 0 5 -9 28 -20 51 -11 23 -28 80 -36 127 -9 47 -20 93 -25 102 -5 10 -9 29 -9 43 0 38 -22 31 -91 -27z"/>
 <path d="M2136 613 c-4 -5 -112 -10 -239 -13 l-232 -5 1 -39 c3 -71 66 -102 234 -112 85 -6 79 -9 204 91 41 33 75 66 76 73 0 13 -32 17 -44 5z"/>
 <path d="M1351 501 c-26 -36 -28 -116 -5 -149 21 -30 114 -32 143 -3 28 28 36 97 17 144 -16 37 -17 37 -75 37 -54 0 -61 -3 -80 -29z"/>
 <path d="M880 485 c-30 -7 -72 -16 -92 -19 -34 -6 -38 -10 -38 -37 l0 -31 89 4 c84 3 90 5 129 38 22 19 41 41 41 48 1 16 -56 15 -129 -3z"/>
 <path d="M1145 444 c-90 -18 -174 -60 -254 -128 -35 -31 -79 -62 -98 -71 -19 -9 -33 -20 -31 -24 2 -4 32 -54 68 -110 l65 -102 51 5 c29 2 67 12 85 21 48 25 128 109 188 198 29 44 62 88 73 99 17 17 19 24 9 39 -6 10 -11 35 -11 54 0 34 -1 35 -37 34 -21 0 -69 -7 -108 -15z"/>
 <path d="M1585 410 c-4 -22 -15 -50 -26 -64 -10 -13 -19 -29 -19 -34 0 -13 78 -126 145 -211 71 -91 122 -112 162 -69 36 41 143 201 143 215 0 8 5 11 11 8 6 -4 19 2 30 14 11 12 26 21 34 21 18 0 20 34 3 47 -7 5 -53 7 -103 3 l-90 -5 -65 38 c-75 43 -160 77 -194 77 -20 0 -25 -6 -31 -40z"/>
 </g>
<g id="layer14" fill="#f3f4f4" stroke="none">
 <path d="M584 2301 c-17 -10 -41 -33 -53 -49 -21 -30 -21 -34 -21 -571 l0 -541 28 -11 c44 -17 284 6 482 48 203 42 185 35 183 69 -3 62 -3 84 7 249 6 113 6 234 0 360 -6 105 -10 201 -9 215 0 14 1 38 2 55 2 29 1 30 -65 40 -41 7 -104 30 -164 59 -94 45 -201 76 -265 76 -16 0 -29 5 -29 10 0 17 -63 11 -96 -9z m491 -241 c13 -5 14 -9 5 -9 -8 0 -24 4 -35 9 -13 5 -14 9 -5 9 8 0 24 -4 35 -9z"/>
 <path d="M2005 2300 c-137 -4 -269 -8 -292 -9 -34 -1 -45 -6 -64 -32 -17 -24 -20 -36 -12 -48 12 -20 10 -785 -2 -815 -5 -11 -3 -27 3 -37 7 -10 12 -30 12 -44 0 -14 6 -27 13 -29 130 -38 139 -42 278 -119 36 -21 99 -46 140 -57 l74 -19 -78 0 c-51 -1 -89 -7 -109 -17 -23 -12 -32 -13 -38 -4 -15 25 -244 -14 -270 -45 -13 -16 -17 -345 -5 -366 10 -15 156 -5 285 21 132 27 239 40 320 40 66 0 69 1 88 33 15 24 22 59 27 142 8 126 -1 161 -42 176 l-28 9 8 108 c4 59 12 160 18 224 7 69 10 264 8 473 l-4 357 -31 34 c-18 19 -36 33 -40 32 -5 -1 -121 -5 -259 -8z"/>
 <path d="M497 1052 c-45 -49 4 -71 58 -27 25 21 28 26 15 35 -23 15 -55 12 -73 -8z"/>
 <path d="M605 1049 c-10 -31 3 -89 21 -89 11 0 12 -4 5 -18 -7 -13 -4 -36 12 -81 17 -50 33 -73 74 -111 103 -94 170 -111 397 -100 92 4 106 12 87 48 -7 13 -7 22 0 29 9 9 13 207 6 298 l-2 30 -130 6 c-71 4 -205 7 -297 8 -161 1 -167 0 -173 -20z"/>
 <path d="M2315 613 c-33 -34 -45 -63 -27 -63 14 0 59 53 67 78 9 30 2 28 -40 -15z"/>
 </g>

</svg>