<!DOCTYPE svg PUBLIC "-//W3C//DTD SVG 20010904//EN" "http://www.w3.org/TR/2001/REC-SVG-20010904/DTD/svg10.dtd">
<svg version="1.0" xmlns="http://www.w3.org/2000/svg" width="258px" height="258px" viewBox="0 0 2580 2580" preserveAspectRatio="xMidYMid meet">
<g id="layer1" fill="#666666" stroke="none">
 <path d="M232 2565 c-65 -15 -125 -56 -169 -113 -66 -87 -64 -39 -61 -1183 3 -831 6 -1042 17 -1074 8 -25 37 -64 75 -101 100 -101 10 -94 1196 -94 1188 0 1097 -7 1197 95 42 43 66 76 75 106 19 63 19 2103 0 2166 -28 92 -120 176 -219 199 -83 19 -2030 19 -2111 -1z m1991 -316 c14 -6 30 -22 36 -36 8 -16 11 -191 11 -568 l0 -545 -96 0 c-96 0 -96 0 -90 24 94 374 -118 774 -486 916 -107 42 -242 64 -350 57 -121 -8 -207 -31 -327 -89 -93 -44 -115 -61 -201 -147 -130 -129 -192 -238 -224 -393 -19 -94 -20 -233 -2 -310 l13 -58 -98 0 -99 0 0 555 0 556 25 24 24 25 920 0 c653 0 927 -3 944 -11z m-768 -511 c203 -68 335 -246 335 -452 -1 -135 -40 -232 -132 -332 -165 -176 -447 -206 -654 -68 -161 107 -242 307 -200 496 63 283 369 451 651 356z m759 -969 c46 -21 56 -62 56 -227 0 -83 -4 -162 -10 -176 -5 -14 -24 -35 -42 -46 -29 -18 -51 -20 -189 -20 -86 0 -170 5 -187 11 -57 20 -62 40 -62 231 0 186 5 209 54 228 32 13 351 12 380 -1z"/>
 </g>

</svg>