<!DOCTYPE svg PUBLIC "-//W3C//DTD SVG 20010904//EN" "http://www.w3.org/TR/2001/REC-SVG-20010904/DTD/svg10.dtd">
<svg version="1.0" xmlns="http://www.w3.org/2000/svg" width="257px" height="361px" viewBox="0 0 2570 3610" preserveAspectRatio="xMidYMid meet">
<g id="layer1" fill="#999999" stroke="none">
 <path d="M695 2760 c-302 -468 -565 -881 -582 -919 -61 -130 -84 -216 -100 -381 -12 -128 -13 -182 -3 -310 14 -192 35 -272 110 -425 152 -311 437 -564 754 -670 84 -28 284 -55 411 -55 126 0 327 27 411 55 195 64 364 174 525 343 202 210 305 418 335 677 17 154 17 279 -1 431 -15 136 -45 235 -106 356 -22 44 -292 451 -600 904 -307 453 -559 828 -559 834 0 5 -10 10 -22 10 -19 -1 -115 -142 -573 -850z m769 -861 c37 -12 102 -45 144 -73 308 -206 354 -651 94 -914 -127 -129 -283 -189 -462 -179 -158 9 -276 62 -389 176 -179 179 -223 450 -112 686 72 154 233 282 405 321 88 20 233 12 320 -17z"/>
 </g>

</svg>