<!DOCTYPE svg PUBLIC "-//W3C//DTD SVG 20010904//EN" "http://www.w3.org/TR/2001/REC-SVG-20010904/DTD/svg10.dtd">
<svg version="1.0" xmlns="http://www.w3.org/2000/svg" width="123px" height="153px" viewBox="0 0 1230 1530" preserveAspectRatio="xMidYMid meet">
<g id="layer1" fill="#666666" stroke="none">
 <path d="M10 1037 c0 -272 -3 -616 -7 -765 l-6 -272 384 0 c424 0 516 9 595 55 60 35 113 91 137 145 29 63 35 209 13 278 -23 67 -71 138 -117 172 l-39 27 64 32 c75 37 159 121 176 177 19 60 24 236 10 307 -24 116 -113 220 -244 281 -99 47 -202 56 -621 56 l-345 0 0 -493z m719 153 c59 -33 84 -76 83 -145 0 -70 -24 -109 -82 -138 -38 -19 -65 -23 -182 -25 l-138 -4 0 172 0 172 138 -4 c124 -3 141 -5 181 -28z m-83 -630 c68 -34 92 -115 55 -188 -27 -53 -59 -65 -183 -70 l-108 -4 0 141 0 141 97 0 c77 0 105 -4 139 -20z"/>
 </g>

</svg>